<svg width="45" height="50" viewBox="0 0 45 50" fill="none" xmlns="http://www.w3.org/2000/svg">
<path d="M14.2256 19.1622C15.6227 19.1622 16.7552 18.0372 16.7552 16.6494C16.7552 15.2617 15.6227 14.1367 14.2256 14.1367C12.8286 14.1367 11.696 15.2617 11.696 16.6494C11.696 18.0372 12.8286 19.1622 14.2256 19.1622Z" fill="white"/>
<path d="M28.21 32.4619C26.8998 30.1788 24.9351 28.6212 22.523 27.6396C22.374 24.6681 20.9196 21.871 18.5859 19.9833C17.4009 19.0243 15.7656 18.8423 14.6106 20.0044C14.5395 20.0756 14.4742 20.1529 14.4123 20.2327C12.0317 18.8855 9.4102 17.8766 6.98991 17.0608C5.15389 16.442 4.37228 19.3193 6.19282 19.9329C8.93282 20.8558 11.9446 22.0521 14.452 23.7865C14.5091 23.8441 14.5676 23.9008 14.6319 23.9532C16.0689 25.1149 16.9613 26.4957 16.9119 28.3656C16.9037 28.6707 16.939 28.9474 17.0058 29.2006C16.8496 30.1653 16.6227 31.1195 16.3364 32.0549C15.4498 31.145 14.6242 30.1831 13.9378 29.1012C12.6523 27.0771 9.40827 28.9441 10.7016 30.9797C12.0796 33.1508 13.8769 34.9496 15.7671 36.6777C16.5613 37.4047 18.2169 37.4609 18.7102 36.3011C19.4512 34.5585 20.0423 32.803 20.4408 30.9927C20.5617 30.9629 20.6802 30.923 20.7968 30.8802C20.9235 30.9658 21.0633 31.0397 21.22 31.0998C22.4282 31.5586 23.4294 32.2923 24.2183 33.2503C23.3549 34.1448 22.4084 34.9419 21.2718 35.516C19.118 36.6057 21.0149 39.817 23.1634 38.7297C25.0391 37.7818 26.5752 36.3059 27.915 34.7161C28.4693 34.0632 28.655 33.2392 28.21 32.4619Z" fill="white"/>
<path d="M12.6484 13.7553C13.0015 13.6256 13.3816 13.3656 13.7797 13.3656C14.6759 13.3656 15.4875 13.725 16.0795 14.3049C15.6941 13.2441 15.3192 12.1789 14.9685 11.1056C14.3751 9.2862 11.4798 10.065 12.0772 11.8974C12.26 12.4571 12.4554 13.1989 12.6484 13.7553Z" fill="white"/>
<path d="M34.1502 5.47705L34.1502 43.6396" stroke="white" stroke-width="3" stroke-linecap="round"/>
<ellipse cx="33.75" cy="45.3251" rx="4.70455" ry="1.82927" fill="white"/>
</svg>
