<svg width="109" height="147" viewBox="0 0 109 147" fill="none" xmlns="http://www.w3.org/2000/svg">
<path d="M71.0152 41.2921C80.1362 41.2921 87.5303 33.8973 87.5303 24.7753C87.5303 15.6533 80.1362 8.25842 71.0152 8.25842C61.8941 8.25842 54.5 15.6533 54.5 24.7753C54.5 33.8973 61.8941 41.2921 71.0152 41.2921Z" stroke="white" stroke-width="10"/>
<path d="M8.25757 138.742L33.6814 129.84C36.6925 128.786 39.212 126.696 40.7729 123.958M100.742 138.742V104.816C100.742 96.8237 93.448 90.7331 85.4111 92.015L78.7224 93.0823M31.3788 86.8679L27.3223 82.9858C22.2645 78.1453 23.8436 69.8131 30.3364 67.0819L46.5595 60.2576C53.0982 57.5069 60.3721 62.2149 60.3721 69.1977V86.189C60.3721 88.4059 59.7928 90.5859 58.6902 92.5208L54.2106 100.38" stroke="white" stroke-width="10" stroke-linecap="round" stroke-linejoin="round"/>
</svg>
