<svg width="48" height="53" viewBox="0 0 48 53" fill="none" xmlns="http://www.w3.org/2000/svg">
<path d="M24.6 23.8769L22.2 30.9313L24.6 37.9857M24.6 23.8769L18.6 20.3497L17.4 30.9313M24.6 23.8769L33 28.5798V41.5129M24.6 37.9857H21L17.4 30.9313M24.6 37.9857L33 41.5129M17.4 30.9313V23.8769V12.1195L27 2.71362M17.4 30.9313L19.8 37.9857M19.8 37.9857H10.2L3 49.7431M19.8 37.9857L22.2 22.7012L19.8 29.7556V37.9857ZM45 49.7431L33 41.5129M29.4 17.9982C28.0745 17.9982 27 16.9454 27 15.6467C27 14.348 28.0745 13.2953 29.4 13.2953C30.7255 13.2953 31.8 14.348 31.8 15.6467C31.8 16.9454 30.7255 17.9982 29.4 17.9982Z" stroke="white" stroke-width="5" stroke-linecap="round" stroke-linejoin="round"/>
</svg>
